<?xml version="1.0" encoding="UTF-8"?>
<svg xmlns="http://www.w3.org/2000/svg" xmlns:xlink="http://www.w3.org/1999/xlink" width="768pt" height="767.999994pt" viewBox="0 0 768 767.999994" version="1.2">
<g id="surface1">
<rect x="0" y="0" width="768" height="767.999994" style="fill:rgb(100%,100%,100%);fill-opacity:1;stroke:none;"/>
<rect x="0" y="0" width="768" height="767.999994" style="fill:rgb(100%,100%,100%);fill-opacity:1;stroke:none;"/>
<rect x="0" y="0" width="768" height="767.999994" style="fill:rgb(36.079407%,88.238525%,90.19928%);fill-opacity:1;stroke:none;"/>
<path style=" stroke:none;fill-rule:nonzero;fill:rgb(95.689392%,84.709167%,31.369019%);fill-opacity:1;" d="M 560.109375 768.050781 L 207.886719 768.050781 C 93.523438 768.050781 -0.0507812 674.476562 -0.0507812 560.113281 L -0.0507812 207.890625 C -0.0507812 93.527344 93.523438 -0.046875 207.886719 -0.046875 L 560.109375 -0.046875 C 674.472656 -0.046875 768.046875 93.527344 768.046875 207.890625 L 768.046875 560.113281 C 768.050781 674.476562 674.476562 768.050781 560.109375 768.050781 Z M 560.109375 768.050781 "/>
<path style=" stroke:none;fill-rule:nonzero;fill:rgb(59.21936%,35.289001%,71.369934%);fill-opacity:1;" d="M 561.222656 -0.0507812 L 206.777344 -0.0507812 C 93.023438 -0.0507812 -0.0507812 93.523438 -0.0507812 207.886719 L -0.0507812 430.921875 C 2.335938 431.484375 4.761719 431.738281 7.210938 431.472656 C 19.15625 430.199219 26.617188 418.183594 31.984375 407.375 C 57.878906 355.28125 78.738281 299.476562 116.648438 255.441406 C 130.554688 239.285156 147.460938 224.496094 168.074219 219.292969 C 202.925781 210.503906 237.664062 230.644531 269.484375 247.433594 C 299 263.007812 330.296875 276.457031 363.441406 280.078125 C 369.265625 280.710938 375.171875 280.976562 381.03125 280.730469 C 387.988281 281.027344 398.535156 280.734375 404.5625 280.078125 C 437.703125 276.457031 469.003906 263.003906 498.519531 247.433594 C 530.339844 230.640625 565.074219 210.503906 599.929688 219.292969 C 620.542969 224.492188 637.449219 239.285156 651.355469 255.441406 C 689.265625 299.476562 710.125 355.28125 736.019531 407.375 C 741.386719 418.179688 748.847656 430.195312 760.792969 431.472656 C 763.238281 431.734375 765.667969 431.484375 768.054688 430.921875 L 768.054688 207.886719 C 768.050781 93.523438 674.976562 -0.0507812 561.222656 -0.0507812 Z M 561.222656 -0.0507812 "/>
<path style=" stroke:none;fill-rule:nonzero;fill:rgb(100%,8.628845%,8.628845%);fill-opacity:1;" d="M 186.566406 507.683594 C 186.566406 508.109375 186.488281 508.535156 186.335938 508.957031 C 186.183594 509.382812 185.953125 509.804688 185.648438 510.21875 C 185.34375 510.636719 184.964844 511.050781 184.511719 511.457031 C 184.058594 511.863281 183.53125 512.265625 182.933594 512.65625 C 182.335938 513.050781 181.667969 513.4375 180.933594 513.8125 C 180.195312 514.1875 179.394531 514.550781 178.527344 514.90625 C 177.660156 515.257812 176.730469 515.601562 175.738281 515.929688 C 174.75 516.257812 173.699219 516.574219 172.597656 516.875 C 171.492188 517.175781 170.335938 517.460938 169.128906 517.730469 C 167.921875 518 166.667969 518.253906 165.367188 518.488281 C 164.070312 518.726562 162.730469 518.945312 161.355469 519.144531 C 159.976562 519.347656 158.566406 519.527344 157.121094 519.691406 C 155.679688 519.855469 154.210938 519.996094 152.714844 520.121094 C 151.222656 520.242188 149.707031 520.347656 148.175781 520.429688 C 146.644531 520.511719 145.101562 520.574219 143.546875 520.617188 C 141.992188 520.660156 140.433594 520.679688 138.871094 520.679688 C 137.308594 520.679688 135.75 520.660156 134.195312 520.617188 C 132.640625 520.574219 131.097656 520.511719 129.566406 520.429688 C 128.035156 520.347656 126.519531 520.242188 125.027344 520.121094 C 123.53125 519.996094 122.0625 519.855469 120.621094 519.691406 C 119.175781 519.527344 117.765625 519.347656 116.386719 519.144531 C 115.011719 518.945312 113.671875 518.726562 112.375 518.488281 C 111.074219 518.253906 109.820312 518 108.613281 517.730469 C 107.40625 517.460938 106.25 517.175781 105.144531 516.875 C 104.042969 516.574219 102.992188 516.257812 102.003906 515.929688 C 101.011719 515.601562 100.082031 515.257812 99.214844 514.90625 C 98.347656 514.550781 97.542969 514.1875 96.808594 513.8125 C 96.070312 513.4375 95.40625 513.050781 94.808594 512.65625 C 94.210938 512.265625 93.683594 511.863281 93.230469 511.457031 C 92.777344 511.050781 92.398438 510.636719 92.09375 510.21875 C 91.789062 509.804688 91.558594 509.382812 91.40625 508.957031 C 91.253906 508.535156 91.175781 508.109375 91.175781 507.683594 C 91.175781 507.257812 91.253906 506.835938 91.40625 506.410156 C 91.558594 505.988281 91.789062 505.566406 92.09375 505.148438 C 92.398438 504.734375 92.777344 504.320312 93.230469 503.914062 C 93.683594 503.503906 94.210938 503.105469 94.808594 502.710938 C 95.40625 502.320312 96.070312 501.933594 96.808594 501.558594 C 97.542969 501.183594 98.347656 500.820312 99.214844 500.464844 C 100.082031 500.113281 101.011719 499.769531 102.003906 499.441406 C 102.992188 499.113281 104.042969 498.796875 105.144531 498.496094 C 106.25 498.195312 107.40625 497.910156 108.613281 497.640625 C 109.820312 497.371094 111.074219 497.117188 112.375 496.878906 C 113.671875 496.644531 115.011719 496.425781 116.386719 496.226562 C 117.765625 496.023438 119.175781 495.84375 120.617188 495.679688 C 122.0625 495.515625 123.53125 495.375 125.027344 495.25 C 126.519531 495.125 128.035156 495.023438 129.566406 494.941406 C 131.097656 494.855469 132.640625 494.792969 134.195312 494.753906 C 135.75 494.710938 137.308594 494.691406 138.871094 494.691406 C 140.433594 494.691406 141.992188 494.710938 143.546875 494.753906 C 145.101562 494.792969 146.644531 494.855469 148.175781 494.941406 C 149.707031 495.023438 151.222656 495.125 152.714844 495.25 C 154.210938 495.375 155.679688 495.515625 157.121094 495.679688 C 158.566406 495.84375 159.976562 496.023438 161.355469 496.226562 C 162.730469 496.425781 164.070312 496.644531 165.367188 496.878906 C 166.667969 497.117188 167.921875 497.371094 169.128906 497.640625 C 170.335938 497.910156 171.492188 498.195312 172.597656 498.496094 C 173.699219 498.796875 174.75 499.113281 175.738281 499.441406 C 176.730469 499.769531 177.660156 500.113281 178.527344 500.464844 C 179.394531 500.820312 180.195312 501.183594 180.933594 501.558594 C 181.667969 501.933594 182.335938 502.320312 182.933594 502.710938 C 183.53125 503.105469 184.058594 503.503906 184.511719 503.914062 C 184.964844 504.320312 185.34375 504.734375 185.648438 505.148438 C 185.953125 505.566406 186.183594 505.988281 186.335938 506.410156 C 186.488281 506.835938 186.566406 507.257812 186.566406 507.683594 Z M 186.566406 507.683594 "/>
<path style=" stroke:none;fill-rule:nonzero;fill:rgb(100%,8.628845%,8.628845%);fill-opacity:1;" d="M 675.742188 507.683594 C 675.742188 508.109375 675.667969 508.535156 675.515625 508.957031 C 675.359375 509.382812 675.132812 509.804688 674.828125 510.21875 C 674.523438 510.636719 674.144531 511.050781 673.6875 511.457031 C 673.234375 511.863281 672.710938 512.265625 672.113281 512.65625 C 671.515625 513.050781 670.847656 513.4375 670.113281 513.8125 C 669.375 514.1875 668.574219 514.550781 667.707031 514.90625 C 666.835938 515.257812 665.90625 515.601562 664.917969 515.929688 C 663.925781 516.257812 662.878906 516.574219 661.773438 516.875 C 660.667969 517.175781 659.511719 517.460938 658.304688 517.730469 C 657.097656 518 655.84375 518.253906 654.546875 518.488281 C 653.246094 518.726562 651.910156 518.945312 650.53125 519.144531 C 649.15625 519.347656 647.742188 519.527344 646.300781 519.691406 C 644.859375 519.855469 643.390625 519.996094 641.894531 520.121094 C 640.398438 520.242188 638.886719 520.347656 637.355469 520.429688 C 635.820312 520.511719 634.277344 520.574219 632.722656 520.617188 C 631.167969 520.660156 629.609375 520.679688 628.050781 520.679688 C 626.488281 520.679688 624.929688 520.660156 623.375 520.617188 C 621.820312 520.574219 620.277344 520.511719 618.746094 520.429688 C 617.210938 520.347656 615.699219 520.242188 614.203125 520.121094 C 612.710938 519.996094 611.242188 519.855469 609.796875 519.691406 C 608.355469 519.527344 606.945312 519.347656 605.566406 519.144531 C 604.1875 518.945312 602.851562 518.726562 601.550781 518.488281 C 600.253906 518.253906 599 518 597.792969 517.730469 C 596.585938 517.460938 595.429688 517.175781 594.324219 516.875 C 593.21875 516.574219 592.171875 516.257812 591.179688 515.929688 C 590.191406 515.601562 589.261719 515.257812 588.394531 514.90625 C 587.523438 514.550781 586.722656 514.1875 585.988281 513.8125 C 585.25 513.4375 584.582031 513.050781 583.984375 512.65625 C 583.386719 512.265625 582.863281 511.863281 582.410156 511.457031 C 581.953125 511.050781 581.574219 510.636719 581.269531 510.21875 C 580.964844 509.804688 580.738281 509.382812 580.585938 508.957031 C 580.429688 508.535156 580.355469 508.109375 580.355469 507.683594 C 580.355469 507.257812 580.429688 506.835938 580.585938 506.410156 C 580.738281 505.988281 580.964844 505.566406 581.269531 505.148438 C 581.574219 504.734375 581.953125 504.320312 582.410156 503.914062 C 582.863281 503.503906 583.386719 503.105469 583.984375 502.710938 C 584.582031 502.320312 585.25 501.933594 585.988281 501.558594 C 586.722656 501.183594 587.523438 500.820312 588.394531 500.464844 C 589.261719 500.113281 590.191406 499.769531 591.179688 499.441406 C 592.171875 499.113281 593.21875 498.796875 594.324219 498.496094 C 595.429688 498.195312 596.585938 497.910156 597.792969 497.640625 C 599 497.371094 600.253906 497.117188 601.550781 496.878906 C 602.851562 496.644531 604.1875 496.425781 605.566406 496.226562 C 606.945312 496.023438 608.355469 495.84375 609.796875 495.679688 C 611.242188 495.515625 612.710938 495.375 614.203125 495.25 C 615.699219 495.125 617.210938 495.023438 618.746094 494.941406 C 620.277344 494.855469 621.820312 494.792969 623.375 494.753906 C 624.929688 494.710938 626.488281 494.691406 628.050781 494.691406 C 629.609375 494.691406 631.167969 494.710938 632.722656 494.753906 C 634.277344 494.792969 635.820312 494.855469 637.355469 494.941406 C 638.886719 495.023438 640.398438 495.125 641.894531 495.25 C 643.390625 495.375 644.859375 495.515625 646.300781 495.679688 C 647.742188 495.84375 649.15625 496.023438 650.53125 496.226562 C 651.910156 496.425781 653.246094 496.644531 654.546875 496.878906 C 655.84375 497.117188 657.097656 497.371094 658.304688 497.640625 C 659.511719 497.910156 660.667969 498.195312 661.773438 498.496094 C 662.878906 498.796875 663.925781 499.113281 664.917969 499.441406 C 665.90625 499.769531 666.835938 500.113281 667.707031 500.464844 C 668.574219 500.820312 669.375 501.183594 670.113281 501.558594 C 670.847656 501.933594 671.515625 502.320312 672.113281 502.710938 C 672.710938 503.105469 673.234375 503.503906 673.691406 503.914062 C 674.144531 504.320312 674.523438 504.734375 674.828125 505.148438 C 675.132812 505.566406 675.359375 505.988281 675.515625 506.410156 C 675.667969 506.835938 675.742188 507.257812 675.742188 507.683594 Z M 675.742188 507.683594 "/>
<path style=" stroke:none;fill-rule:nonzero;fill:rgb(0%,29.019165%,67.83905%);fill-opacity:1;" d="M 109.429688 397.578125 C 106.738281 391.792969 106.53125 385.082031 108.082031 378.773438 C 109.652344 372.457031 113.0625 366.519531 117.734375 361.84375 C 122.398438 357.160156 128.34375 353.75 134.660156 352.171875 C 140.964844 350.621094 147.683594 350.828125 153.472656 353.539062 C 147.722656 356.269531 142.917969 358.742188 138.578125 361.613281 C 134.242188 364.449219 130.421875 367.566406 126.925781 371.03125 C 123.449219 374.515625 120.324219 378.339844 117.492188 382.679688 C 114.609375 387.019531 112.136719 391.835938 109.429688 397.578125 Z M 109.429688 397.578125 "/>
<path style=" stroke:none;fill-rule:nonzero;fill:rgb(0%,29.019165%,67.83905%);fill-opacity:1;" d="M 658.570312 397.578125 C 655.863281 391.832031 653.386719 387.019531 650.511719 382.675781 C 647.679688 378.339844 644.554688 374.511719 641.078125 371.027344 C 637.582031 367.5625 633.761719 364.441406 629.425781 361.609375 C 625.082031 358.738281 620.277344 356.265625 614.53125 353.535156 C 620.320312 350.824219 627.035156 350.621094 633.34375 352.167969 C 639.660156 353.746094 645.605469 357.15625 650.269531 361.839844 C 654.941406 366.515625 658.351562 372.453125 659.921875 378.769531 C 661.46875 385.082031 661.265625 391.796875 658.570312 397.578125 Z M 658.570312 397.578125 "/>
<path style=" stroke:none;fill-rule:nonzero;fill:rgb(0%,29.019165%,67.83905%);fill-opacity:1;" d="M 384 562.058594 C 368.148438 562.058594 355.179688 549.089844 355.179688 533.238281 L 355.179688 516.578125 C 355.179688 500.726562 368.148438 487.757812 384 487.757812 C 399.851562 487.757812 412.820312 500.726562 412.820312 516.578125 L 412.820312 533.238281 C 412.820312 549.085938 399.851562 562.058594 384 562.058594 Z M 384 562.058594 "/>
<path style=" stroke:none;fill-rule:nonzero;fill:rgb(0%,29.019165%,67.83905%);fill-opacity:1;" d="M 221.820312 458.121094 L 145.015625 458.121094 C 141.425781 458.121094 138.515625 455.210938 138.515625 451.621094 C 138.515625 448.035156 141.421875 445.121094 145.015625 445.121094 L 221.820312 445.121094 C 225.410156 445.121094 228.320312 448.035156 228.320312 451.621094 C 228.320312 455.210938 225.410156 458.121094 221.820312 458.121094 Z M 221.820312 458.121094 "/>
<path style=" stroke:none;fill-rule:nonzero;fill:rgb(0%,29.019165%,67.83905%);fill-opacity:1;" d="M 626.09375 458.121094 L 549.28125 458.121094 C 545.695312 458.121094 542.785156 455.210938 542.785156 451.621094 C 542.785156 448.035156 545.691406 445.121094 549.28125 445.121094 L 626.09375 445.121094 C 629.683594 445.121094 632.59375 448.035156 632.59375 451.621094 C 632.59375 455.210938 629.683594 458.121094 626.09375 458.121094 Z M 626.09375 458.121094 "/>
<path style=" stroke:none;fill-rule:nonzero;fill:rgb(0%,29.019165%,67.83905%);fill-opacity:1;" d="M 140.53125 164.15625 L 63.722656 164.15625 C 60.820312 164.15625 58.265625 162.226562 57.472656 159.433594 C 56.679688 156.640625 57.832031 153.65625 60.300781 152.128906 L 117.675781 116.632812 L 63.71875 116.632812 C 60.132812 116.632812 57.222656 113.726562 57.222656 110.132812 C 57.222656 106.539062 60.128906 103.632812 63.71875 103.632812 L 140.527344 103.632812 C 143.429688 103.632812 145.984375 105.5625 146.78125 108.355469 C 147.574219 111.152344 146.417969 114.132812 143.949219 115.660156 L 86.574219 151.15625 L 140.53125 151.15625 C 144.121094 151.15625 147.03125 154.066406 147.03125 157.65625 C 147.03125 161.25 144.121094 164.15625 140.53125 164.15625 Z M 140.53125 164.15625 "/>
<path style=" stroke:none;fill-rule:nonzero;fill:rgb(0%,29.019165%,67.83905%);fill-opacity:1;" d="M 240.277344 195.644531 L 176.53125 195.644531 C 173.628906 195.644531 171.074219 193.714844 170.28125 190.921875 C 169.488281 188.125 170.640625 185.144531 173.109375 183.617188 L 217.425781 156.199219 L 176.53125 156.199219 C 172.941406 156.199219 170.03125 153.289062 170.03125 149.699219 C 170.03125 146.105469 172.9375 143.199219 176.53125 143.199219 L 240.277344 143.199219 C 243.183594 143.199219 245.738281 145.125 246.53125 147.921875 C 247.324219 150.714844 246.171875 153.695312 243.699219 155.226562 L 199.386719 182.644531 L 240.277344 182.644531 C 243.867188 182.644531 246.777344 185.550781 246.777344 189.144531 C 246.777344 192.734375 243.867188 195.644531 240.277344 195.644531 Z M 240.277344 195.644531 "/>
<path style=" stroke:none;fill-rule:nonzero;fill:rgb(0%,29.019165%,67.83905%);fill-opacity:1;" d="M 145.011719 261.566406 L 98.390625 261.566406 C 95.488281 261.566406 92.933594 259.636719 92.140625 256.84375 C 91.347656 254.046875 92.5 251.066406 94.96875 249.539062 L 122.15625 232.71875 L 98.386719 232.71875 C 94.800781 232.71875 91.890625 229.8125 91.890625 226.21875 C 91.890625 222.628906 94.796875 219.71875 98.386719 219.71875 L 145.007812 219.71875 C 147.910156 219.71875 150.464844 221.648438 151.257812 224.441406 C 152.050781 227.238281 150.898438 230.21875 148.429688 231.746094 L 121.242188 248.566406 L 145.011719 248.566406 C 148.597656 248.566406 151.507812 251.472656 151.507812 255.066406 C 151.507812 258.65625 148.601562 261.566406 145.011719 261.566406 Z M 145.011719 261.566406 "/>
</g>
</svg>
